<svg id="visual" viewBox="0 0 900 600" width="900" height="600" xmlns="http://www.w3.org/2000/svg" xmlns:xlink="http://www.w3.org/1999/xlink" version="1.1"><rect x="0" y="0" width="900" height="600" fill="#121212"></rect><g fill="none" stroke="#FFFFFF" stroke-width="4"><path d="M0 -98.2L22 -30.3L93.4 -30.3L35.7 11.6L57.7 79.4L0 37.5L-57.7 79.4L-35.7 11.6L-93.4 -30.3L-22 -30.3Z" transform="translate(1 13)"></path><path d="M0 -31.1L7 -9.6L29.6 -9.6L11.3 3.7L18.3 25.2L0 11.9L-18.3 25.2L-11.3 3.7L-29.6 -9.6L-7 -9.6Z" transform="translate(773 307)"></path><path d="M0 -52.9L11.9 -16.3L50.3 -16.3L19.2 6.2L31.1 42.8L0 20.2L-31.1 42.8L-19.2 6.2L-50.3 -16.3L-11.9 -16.3Z" transform="translate(297 167)"></path><path d="M0 -34L7.6 -10.5L32.3 -10.5L12.3 4L20 27.5L0 13L-20 27.5L-12.3 4L-32.3 -10.5L-7.6 -10.5Z" transform="translate(186 383)"></path><path d="M0 -87.8L19.7 -27.1L83.5 -27.1L31.9 10.4L51.6 71L0 33.5L-51.6 71L-31.9 10.4L-83.5 -27.1L-19.7 -27.1Z" transform="translate(746 520)"></path></g></svg>